<?xml version="1.0" encoding="UTF-8"?>
<svg width="28px" height="28px" viewBox="0 0 28 28" version="1.1" xmlns="http://www.w3.org/2000/svg" xmlns:xlink="http://www.w3.org/1999/xlink">
    <!-- Generator: Sketch 64 (93537) - https://sketch.com -->
    <title>box</title>
    <desc>Created with Sketch.</desc>
    <g id="wireframes-mobile" stroke="none" stroke-width="1" fill="none" fill-rule="evenodd">
        <g id="style-guidelines-icons" transform="translate(-184.000000, -392.000000)" fill="#00B2A9" fill-rule="nonzero">
            <path d="M209.375,420 C210.824219,420 212,418.824219 212,417.375 L212,402.926552 C212,402.642166 211.956261,402.363281 211.863281,402.095291 L209.096115,393.793739 C208.740646,392.721886 207.739822,392 206.607834,392 L189.392166,392 C188.260178,392 187.259354,392.721886 186.903885,393.793739 L184.136719,402.095291 C184.04924,402.363281 184,402.642166 184,402.926552 L184,417.375 C184,418.824219 185.175781,420 186.625,420 L209.375,420 Z M197.125,402.9375 L185.75,402.9375 L185.75,402.926552 C185.75,402.833572 185.766396,402.740646 185.793739,402.647667 L188.560959,394.346115 C188.681229,393.990646 189.014854,393.75 189.392166,393.75 L197.125,393.75 L197.125,402.9375 Z M210.25,402.9375 L198.875,402.9375 L198.875,393.75 L206.607834,393.75 C206.985146,393.75 207.318771,393.990646 207.439041,394.346115 L210.206261,402.647667 C210.233604,402.735146 210.25,402.828125 210.25,402.926552 L210.25,402.9375 Z M209.375,418.25 L186.625,418.25 C186.143761,418.25 185.75,417.856239 185.75,417.375 L185.75,404.6875 L210.25,404.6875 L210.25,417.375 C210.25,417.856239 209.856239,418.25 209.375,418.25 Z" id="box"></path>
        </g>
    </g>
</svg>