<?xml version="1.0" encoding="UTF-8"?>
<svg width="17px" height="20px" viewBox="0 0 17 20" version="1.1" xmlns="http://www.w3.org/2000/svg" xmlns:xlink="http://www.w3.org/1999/xlink">
    <!-- Generator: Sketch 64 (93537) - https://sketch.com -->
    <title> address-book</title>
    <desc>Created with Sketch.</desc>
    <g id="wireframes-mobile" stroke="none" stroke-width="1" fill="none" fill-rule="evenodd">
        <g id="style-guidelines-icons" transform="translate(-129.000000, -334.000000)" fill="#00B2A9" fill-rule="nonzero">
            <path d="M142.357143,354 C143.696644,354 144.785714,352.878899 144.785714,351.5 L144.785714,350.25 L145.544643,350.25 C145.795074,350.25 146,350.039047 146,349.78125 L146,348.21875 C146,347.960953 145.795074,347.75 145.544643,347.75 L144.785714,347.75 L144.785714,345.25 L145.544643,345.25 C145.795074,345.25 146,345.039047 146,344.78125 L146,343.21875 C146,342.960953 145.795074,342.75 145.544643,342.75 L144.785714,342.75 L144.785714,340.25 L145.544643,340.25 C145.795074,340.25 146,340.039047 146,339.78125 L146,338.21875 C146,337.960953 145.795074,337.75 145.544643,337.75 L144.785714,337.75 L144.785714,336.5 C144.785714,335.121101 143.696644,334 142.357143,334 L131.428571,334 C130.08907,334 129,335.121101 129,336.5 L129,351.5 C129,352.878899 130.08907,354 131.428571,354 L142.357143,354 Z M142.357143,352.75 L131.428571,352.75 C130.760729,352.75 130.214286,352.187485 130.214286,351.5 L130.214286,336.5 C130.214286,335.812515 130.760729,335.25 131.428571,335.25 L142.357143,335.25 C143.024985,335.25 143.571429,335.812515 143.571429,336.5 L143.571429,351.5 C143.571429,352.187485 143.024985,352.75 142.357143,352.75 Z M136.892857,344.625 C138.570097,344.625 139.928571,343.22657 139.928571,341.5 C139.928571,339.77343 138.570097,338.375 136.892857,338.375 C135.215618,338.375 133.857143,339.77343 133.857143,341.5 C133.857143,343.22657 135.215618,344.625 136.892857,344.625 Z M136.892857,343.375 C135.887277,343.375 135.071429,342.535156 135.071429,341.5 C135.071429,340.464844 135.887277,339.625 136.892857,339.625 C137.898438,339.625 138.714286,340.464844 138.714286,341.5 C138.714286,342.535156 137.898438,343.375 136.892857,343.375 Z M133.553571,349.625 C133.720551,349.625 133.857143,349.48439 133.857143,349.3125 L133.857143,347.785172 C133.857143,347.511734 133.936816,347.246078 134.084821,347.019524 C134.297307,346.695312 134.684368,346.503891 135.120752,346.503891 C135.591302,346.503891 135.91003,346.777328 136.896637,346.777328 C137.879464,346.777328 138.198229,346.503891 138.672559,346.503891 C139.108943,346.503891 139.495967,346.699203 139.70849,347.019524 C139.856458,347.246078 139.936168,347.511734 139.936168,347.785172 L139.936168,349.3125 C139.936168,349.48439 140.07276,349.625 140.23974,349.625 L140.846882,349.625 C141.013824,349.625 141.150454,349.48439 141.150454,349.3125 L141.150454,347.785172 C141.150454,347.242188 140.991071,346.738266 140.71785,346.320328 C140.251116,345.617203 139.469434,345.25 138.668743,345.25 C137.928787,345.25 137.742872,345.523438 136.892857,345.523438 C136.042842,345.523438 135.856927,345.25 135.116972,345.25 C134.3125,345.25 133.530818,345.617203 133.075461,346.320328 C132.80224,346.738266 132.642857,347.242188 132.642857,347.785172 L132.642857,349.3125 C132.642857,349.48439 132.779449,349.625 132.946429,349.625 L133.553571,349.625 Z" id="-address-book"></path>
        </g>
    </g>
</svg>