<?xml version="1.0" encoding="UTF-8"?>
<svg width="16px" height="14px" viewBox="0 0 16 14" version="1.1" xmlns="http://www.w3.org/2000/svg" xmlns:xlink="http://www.w3.org/1999/xlink">
    <!-- Generator: Sketch 64 (93537) - https://sketch.com -->
    <title>archive</title>
    <desc>Created with Sketch.</desc>
    <g id="wireframes-mobile" stroke="none" stroke-width="1" fill="none" fill-rule="evenodd">
        <g id="style-guidelines-icons" transform="translate(-506.000000, -228.000000)" fill="#023A4D" fill-rule="nonzero">
            <path d="M519.999967,241.999998 C520.553096,241.999998 520.999964,241.55313 520.999964,241 L520.999964,232.50002 L521.499963,232.50002 C521.774956,232.50002 521.999962,232.275015 521.999962,232.000031 L521.999962,229.500031 C521.999962,228.671904 521.328088,228.000031 520.499965,228.000031 L507.5,228.000031 C506.671873,228.000031 506,228.671904 506,229.500031 L506,232.000031 C506,232.275015 506.225006,232.50002 506.5,232.50002 L507,232.50002 L507,241 C507,241.55313 507.446865,241.999998 508,241.999998 L519.999967,241.999998 Z M520.499965,231.000027 L507.499996,231.000027 L507.499996,229.500027 L520.499965,229.500027 L520.499965,231.000027 Z M519.499968,240.500001 L508.499994,240.500001 L508.499994,232.50002 L519.499968,232.50002 L519.499968,240.500001 Z M515.624977,235.500017 C515.831214,235.500017 515.999986,235.331251 515.999986,235.125014 L515.999986,234.375016 C515.999986,234.168778 515.831214,234.000017 515.624977,234.000017 L512.374985,234.000017 C512.168747,234.000017 511.999986,234.168778 511.999986,234.375016 L511.999986,235.125014 C511.999986,235.331251 512.168747,235.500017 512.374985,235.500017 L515.624977,235.500017 Z" id="archive"></path>
        </g>
    </g>
</svg>