<?xml version="1.0" encoding="UTF-8"?>
<svg width="90px" height="79px" viewBox="0 0 90 79" version="1.1" xmlns="http://www.w3.org/2000/svg" xmlns:xlink="http://www.w3.org/1999/xlink">
    <!-- Generator: Sketch 64 (93537) - https://sketch.com -->
    <title>archive bg</title>
    <desc>Created with Sketch.</desc>
    <g id="wireframes-mobile" stroke="none" stroke-width="1" fill="none" fill-rule="evenodd">
        <g id="style-guidelines-icons" transform="translate(-353.000000, -736.000000)" fill="#F5F7F8" fill-rule="nonzero">
            <path d="M431.75,815 C434.861362,815 437.375,812.478383 437.375,809.357143 L437.375,761.392857 L440.1875,761.392857 C441.734341,761.392857 443,760.12318 443,758.571429 L443,744.464286 C443,739.791295 439.220703,736 434.5625,736 L361.4375,736 C356.779297,736 353,739.791295 353,744.464286 L353,758.571429 C353,760.12318 354.265659,761.392857 355.8125,761.392857 L358.625,761.392857 L358.625,809.357143 C358.625,812.478383 361.138638,815 364.25,815 L431.75,815 Z M435,753 L362,753 L362,744 L435,744 L435,753 Z M430,806 L368,806 L368,761 L430,761 L430,806 Z M407.84375,779 C409.029617,779 410,777.987427 410,776.75 L410,772.25 C410,771.012573 409.029617,770 407.84375,770 L389.15625,770 C387.970383,770 387,771.012573 387,772.25 L387,776.75 C387,777.987427 387.970383,779 389.15625,779 L407.84375,779 Z" id="archive-bg"></path>
        </g>
    </g>
</svg>