<?xml version="1.0" encoding="UTF-8"?>
<svg width="12px" height="16px" viewBox="0 0 12 16" version="1.1" xmlns="http://www.w3.org/2000/svg" xmlns:xlink="http://www.w3.org/1999/xlink">
    <!-- Generator: Sketch 64 (93537) - https://sketch.com -->
    <title>clipboard-list</title>
    <desc>Created with Sketch.</desc>
    <g id="wireframes-mobile" stroke="none" stroke-width="1" fill="none" fill-rule="evenodd">
        <g id="style-guidelines-icons" transform="translate(-406.000000, -226.000000)" fill="#023A4D" fill-rule="nonzero">
            <path d="M416.499975,241.999995 C417.328098,241.999995 417.999971,241.328122 417.999971,240.499999 L417.999971,229.500033 C417.999971,228.671902 417.328098,228.000033 416.499975,228.000033 L413.999981,228.000033 C413.999981,226.896912 413.103102,226.000033 411.999986,226.000033 C410.896869,226.000033 410,226.896912 410,228.000033 L407.5,228.000033 C406.671873,228.000033 406,228.671902 406,229.500033 L406,240.499999 C406,241.328122 406.671873,241.999995 407.5,241.999995 L416.499975,241.999995 Z M411.999986,228.500029 C411.724992,228.500029 411.499986,228.275022 411.499986,228.000029 C411.499986,227.725035 411.724992,227.500029 411.999986,227.500029 C412.274979,227.500029 412.499986,227.725035 412.499986,228.000029 C412.499986,228.275022 412.274979,228.500029 411.999986,228.500029 Z M416.249976,240.499999 L407.749996,240.499999 C407.612484,240.499999 407.499996,240.387511 407.499996,240.249999 L407.499996,229.750024 C407.499996,229.612513 407.612484,229.500025 407.749996,229.500025 L408.999996,229.500025 L408.999996,230.500025 C408.999996,230.775016 409.224998,231.000025 409.499996,231.000025 L414.49998,231.000025 C414.774973,231.000025 414.999979,230.775016 414.999979,230.500025 L414.999979,229.500025 L416.249976,229.500025 C416.387487,229.500025 416.499975,229.612513 416.499975,229.750024 L416.499975,240.249999 C416.499975,240.387511 416.387487,240.499999 416.249976,240.499999 Z M409.499992,234.750016 C409.91561,234.750016 410.249993,234.415632 410.249993,234.000014 C410.249993,233.584396 409.91561,233.250016 409.499992,233.250016 C409.084374,233.250016 408.749993,233.584396 408.749993,234.000014 C408.749993,234.415632 409.084374,234.750016 409.499992,234.750016 Z M414.749979,234.500014 C414.887491,234.500014 414.999988,234.387526 414.999988,234.250014 L414.999988,233.750015 C414.999988,233.612503 414.887491,233.500014 414.749979,233.500014 L411.249987,233.500014 C411.112476,233.500014 410.999988,233.612503 410.999988,233.750015 L410.999988,234.250014 C410.999988,234.387526 411.112476,234.500014 411.249987,234.500014 L414.749979,234.500014 Z M409.499992,237.750009 C409.91561,237.750009 410.249993,237.415625 410.249993,237.000007 C410.249993,236.584389 409.91561,236.250009 409.499992,236.250009 C409.084374,236.250009 408.749993,236.584389 408.749993,237.000007 C408.749993,237.415625 409.084374,237.750009 409.499992,237.750009 Z M414.749979,237.500007 C414.887491,237.500007 414.999988,237.387518 414.999988,237.250007 L414.999988,236.750008 C414.999988,236.612496 414.887491,236.500007 414.749979,236.500007 L411.249987,236.500007 C411.112476,236.500007 410.999988,236.612496 410.999988,236.750008 L410.999988,237.250007 C410.999988,237.387518 411.112476,237.500007 411.249987,237.500007 L414.749979,237.500007 Z" id="clipboard-list"></path>
        </g>
    </g>
</svg>