<?xml version="1.0" encoding="UTF-8"?>
<svg width="90px" height="120px" viewBox="0 0 90 120" version="1.1" xmlns="http://www.w3.org/2000/svg" xmlns:xlink="http://www.w3.org/1999/xlink">
    <!-- Generator: Sketch 64 (93537) - https://sketch.com -->
    <title>clipboard-list bg</title>
    <desc>Created with Sketch.</desc>
    <g id="wireframes-mobile" stroke="none" stroke-width="1" fill="none" fill-rule="evenodd">
        <g id="style-guidelines-icons" transform="translate(-74.000000, -695.000000)" fill="#F5F7F8" fill-rule="nonzero">
            <path d="M152.749812,814.999714 C158.960735,814.999714 163.999785,809.960663 163.999785,803.749741 L163.999785,721.249937 C163.999785,715.039015 158.960735,709.999964 152.749812,709.999964 L131.984328,709.999964 C132.077941,709.390682 132.124861,708.757825 132.124861,708.124969 C132.124861,700.882707 126.242154,695 118.999893,695 C111.757631,695 105.874924,700.882707 105.874924,708.124969 C105.874924,708.757825 105.921845,709.390682 106.015457,709.999964 L85.2499732,709.999964 C79.0390505,709.999964 74,715.039015 74,721.249937 L74,803.749741 C74,809.960663 79.0390505,814.999714 85.2499732,814.999714 L152.749812,814.999714 Z M118.999893,713.749955 C115.882758,713.749955 113.374906,711.242103 113.374906,708.124969 C113.374906,705.007834 115.882758,702.499982 118.999893,702.499982 C122.117027,702.499982 124.624879,705.007834 124.624879,708.124969 C124.624879,711.242103 122.117027,713.749955 118.999893,713.749955 Z M152.749812,807.499732 L85.2499732,807.499732 C83.1875239,807.499732 81.4999821,805.81219 81.4999821,803.749741 L81.4999821,721.249937 C81.4999821,719.187488 83.1875239,717.499946 85.2499732,717.499946 L96.4999464,717.499946 L96.4999464,722.187435 C96.4999464,723.734215 97.7656599,724.999928 99.3124397,724.999928 L138.687346,724.999928 C140.234126,724.999928 141.499839,723.734215 141.499839,722.187435 L141.499839,717.499946 L152.749812,717.499946 C154.812262,717.499946 156.499803,719.187488 156.499803,721.249937 L156.499803,803.749741 C156.499803,805.81219 154.812262,807.499732 152.749812,807.499732 Z M100.249937,760.624844 C103.367072,760.624844 105.874924,758.116991 105.874924,754.999857 C105.874924,751.882723 103.367072,749.37487 100.249937,749.37487 C97.1328031,749.37487 94.6249508,751.882723 94.6249508,754.999857 C94.6249508,758.116991 97.1328031,760.624844 100.249937,760.624844 Z M139.624844,758.749848 C140.656183,758.749848 141.499839,757.906192 141.499839,756.874852 L141.499839,753.124861 C141.499839,752.093522 140.656183,751.249866 139.624844,751.249866 L113.374906,751.249866 C112.343567,751.249866 111.499911,752.093522 111.499911,753.124861 L111.499911,756.874852 C111.499911,757.906192 112.343567,758.749848 113.374906,758.749848 L139.624844,758.749848 Z M100.249937,783.12479 C103.367072,783.12479 105.874924,780.616938 105.874924,777.499803 C105.874924,774.382669 103.367072,771.874817 100.249937,771.874817 C97.1328031,771.874817 94.6249508,774.382669 94.6249508,777.499803 C94.6249508,780.616938 97.1328031,783.12479 100.249937,783.12479 Z M139.624844,781.249794 C140.656183,781.249794 141.499839,780.406138 141.499839,779.374799 L141.499839,775.624808 C141.499839,774.593469 140.656183,773.749812 139.624844,773.749812 L113.374906,773.749812 C112.343567,773.749812 111.499911,774.593469 111.499911,775.624808 L111.499911,779.374799 C111.499911,780.406138 112.343567,781.249794 113.374906,781.249794 L139.624844,781.249794 Z" id="clipboard-list-bg"></path>
        </g>
    </g>
</svg>