<?xml version="1.0" encoding="UTF-8"?>
<svg width="14px" height="19px" viewBox="0 0 14 19" version="1.1" xmlns="http://www.w3.org/2000/svg" xmlns:xlink="http://www.w3.org/1999/xlink">
    <title>file-spreadsheet</title>
    <g id="wireframes-mobile" stroke="none" stroke-width="1" fill="none" fill-rule="evenodd">
        <g id="style-guidelines-icons" transform="translate(-1011.000000, -171.000000)" fill="#023A4D" fill-rule="nonzero">
            <path d="M1023.31,189.249995 C1024.24164,189.249995 1024.99997,188.494137 1024.99997,187.562842 L1024.99997,175.889587 C1024.99997,175.443475 1024.81821,175.011061 1024.50181,174.694655 L1021.55257,171.745726 C1021.23616,171.42932 1020.80725,171.250038 1020.3611,171.250038 L1013.18715,171.250038 C1012.25586,171.253539 1011.5,172.009397 1011.5,172.940692 L1011.5,187.562842 C1011.5,188.494137 1012.25586,189.249995 1013.18715,189.249995 L1023.31,189.249995 Z M1023.31247,187.562842 L1013.18715,187.562842 L1013.18715,172.940692 L1018.81107,172.940692 L1018.81107,176.596247 C1018.81107,177.063817 1019.18725,177.439617 1019.65482,177.439617 L1023.31247,177.439617 L1023.31247,187.562842 Z M1023.17325,175.752499 L1020.49823,175.752499 L1020.49823,173.077815 L1023.17325,175.752499 Z M1021.62498,186.437501 C1021.93575,186.437501 1022.18747,186.185778 1022.18747,185.875003 L1022.18747,179.687517 C1022.18747,179.376742 1021.93575,179.125019 1021.62498,179.125019 L1014.87499,179.125019 C1014.56422,179.125019 1014.31249,179.376742 1014.31249,179.687517 L1014.31249,185.875003 C1014.31249,186.185778 1014.56422,186.437501 1014.87499,186.437501 L1021.62498,186.437501 Z M1021.06248,182.500011 L1018.81248,182.500011 L1018.81248,180.812515 L1021.06248,180.812515 L1021.06248,182.500011 Z M1017.68749,182.500011 L1015.43749,182.500011 L1015.43749,180.812515 L1017.68749,180.812515 L1017.68749,182.500011 Z M1021.06248,185.312504 L1018.81248,185.312504 L1018.81248,183.625008 L1021.06248,183.625008 L1021.06248,185.312504 Z M1017.68749,185.312504 L1015.43749,185.312504 L1015.43749,183.625008 L1017.68749,183.625008 L1017.68749,185.312504 Z" id="file-spreadsheet"></path>
        </g>
    </g>
</svg>