<?xml version="1.0" encoding="UTF-8"?>
<svg width="18px" height="19px" viewBox="0 0 18 19" version="1.1" xmlns="http://www.w3.org/2000/svg" xmlns:xlink="http://www.w3.org/1999/xlink">
    <title>flag</title>
    <g id="wireframes-mobile" stroke="none" stroke-width="1" fill="none" fill-rule="evenodd">
        <g id="style-guidelines-icons" transform="translate(-847.000000, -171.000000)" fill="#407EC9" fill-rule="nonzero">
            <path d="M849.531244,189.249995 C849.997235,189.249995 850.374992,188.872238 850.374992,188.406247 L850.374992,185.087491 C851.370282,184.663385 852.610292,184.309764 854.398073,184.309764 C856.282052,184.309764 857.837918,185.532608 860.206496,185.532608 C861.899932,185.532608 863.253375,184.959775 864.513298,184.096217 C864.818546,183.886997 864.999957,183.539624 864.999957,183.169557 L864.999957,174.623107 C864.999957,173.800679 864.146768,173.256583 863.400867,173.602994 C862.193678,174.163673 860.713033,174.722876 859.28938,174.722876 C857.405436,174.722876 855.849535,173.500032 853.480957,173.500032 C852.603632,173.500032 851.817768,173.654149 851.088758,173.922352 C851.160547,173.734899 851.218809,173.419798 851.218809,173.219023 C851.218809,173.184485 851.217023,173.128489 851.214826,173.09402 C851.152547,172.094301 850.333004,171.292438 849.332186,171.25172 C848.207429,171.205955 847.281249,172.104188 847.281249,173.218783 C847.281249,173.887677 847.61513,174.478259 848.124997,174.834044 L848.124997,188.406247 C848.124997,188.872238 848.502754,189.249995 848.968745,189.249995 L849.531244,189.249995 Z" id="flag"></path>
        </g>
    </g>
</svg>