<?xml version="1.0" encoding="UTF-8"?>
<svg width="18px" height="12px" viewBox="0 0 18 12" version="1.1" xmlns="http://www.w3.org/2000/svg" xmlns:xlink="http://www.w3.org/1999/xlink">
    <!-- Generator: Sketch 64 (93537) - https://sketch.com -->
    <title>long-arrow-right</title>
    <desc>Created with Sketch.</desc>
    <g id="wireframes-mobile" stroke="none" stroke-width="1" fill="none" fill-rule="evenodd">
        <g id="style-guidelines-icons" transform="translate(-189.000000, -283.000000)" fill="#090863" fill-rule="nonzero">
            <path d="M201.560893,294.853371 L206.858743,289.354052 C207.047086,289.158506 207.047086,288.841494 206.858743,288.645907 L201.560814,283.146629 C201.372433,282.951124 201.067033,282.951124 200.878652,283.146629 L200.089756,283.965525 C199.898705,284.163841 199.901846,284.486436 200.096704,284.680719 L203.341315,287.915147 L189.482358,287.915147 C189.215978,287.915147 189,288.139338 189,288.415849 L189,289.584151 C189,289.860662 189.215978,290.084853 189.482358,290.084853 L203.341315,290.084853 L200.096783,293.319281 C199.901846,293.513564 199.898705,293.836159 200.089795,294.034475 L200.878691,294.853371 C201.067073,295.048876 201.372472,295.048876 201.560893,294.853371 Z" id="long-arrow-right"></path>
        </g>
    </g>
</svg>