<?xml version="1.0" encoding="UTF-8"?>
<svg width="16px" height="16px" viewBox="0 0 16 16" version="1.1" xmlns="http://www.w3.org/2000/svg" xmlns:xlink="http://www.w3.org/1999/xlink">
    <title>minus-circle</title>
    <g id="wireframes-mobile" stroke="none" stroke-width="1" fill="none" fill-rule="evenodd">
        <g id="style-guidelines-icons" transform="translate(-683.000000, -281.000000)" fill="#FFFFFF" fill-rule="nonzero">
            <path d="M690.999981,296.749996 C695.281221,296.749996 698.749962,293.281254 698.749962,289.000014 C698.749962,284.718775 695.281221,281.250033 690.999981,281.250033 C686.718741,281.250033 683.249999,284.718775 683.249999,289.000014 C683.249999,293.281254 686.718741,296.749996 690.999981,296.749996 Z M690.999981,295.249999 C687.546864,295.249999 684.749996,292.453131 684.749996,289.000014 C684.749996,285.546898 687.546864,282.750029 690.999981,282.750029 C694.453098,282.750029 697.249966,285.546898 697.249966,289.000014 C697.249966,292.453131 694.453098,295.249999 690.999981,295.249999 Z M694.624972,289.875012 C694.83121,289.875012 694.999971,289.70625 694.999971,289.500013 L694.999971,288.500015 C694.999971,288.293778 694.83121,288.125016 694.624972,288.125016 L687.37499,288.125016 C687.168752,288.125016 686.99999,288.293778 686.99999,288.500015 L686.99999,289.500013 C686.99999,289.70625 687.168752,289.875012 687.37499,289.875012 L694.624972,289.875012 Z" id="minus-circle"></path>
        </g>
    </g>
</svg>