<?xml version="1.0" encoding="UTF-8"?>
<svg width="14px" height="14px" viewBox="0 0 14 14" version="1.1" xmlns="http://www.w3.org/2000/svg" xmlns:xlink="http://www.w3.org/1999/xlink">
    <!-- Generator: Sketch 64 (93537) - https://sketch.com -->
    <title>poll-h</title>
    <desc>Created with Sketch.</desc>
    <g id="wireframes-mobile" stroke="none" stroke-width="1" fill="none" fill-rule="evenodd">
        <g id="style-guidelines-icons" transform="translate(-456.000000, -227.000000)" fill="#023A4D" fill-rule="nonzero">
            <path d="M468.49997,240.999998 C469.328093,240.999998 469.999967,240.328124 469.999967,239.500001 L469.999967,228.500031 C469.999967,227.671904 469.328093,227.000031 468.49997,227.000031 L457.5,227.000031 C456.671873,227.000031 456,227.671904 456,228.500031 L456,239.500001 C456,240.328124 456.671873,240.999998 457.5,240.999998 L468.49997,240.999998 Z M468.49997,239.500001 L457.499996,239.500001 L457.499996,228.500027 L468.49997,228.500027 L468.49997,239.500001 Z M463.499982,231.750023 C463.776227,231.750023 463.999981,231.526265 463.999981,231.250023 L463.999981,230.750023 C463.999981,230.473778 463.776227,230.250023 463.499982,230.250023 L459.499993,230.250023 C459.223747,230.250023 458.999993,230.473778 458.999993,230.750023 L458.999993,231.250023 C458.999993,231.526265 459.223747,231.750023 459.499993,231.750023 L463.499982,231.750023 Z M466.499975,234.750016 C466.776219,234.750016 466.999974,234.526258 466.999974,234.250016 L466.999974,233.750016 C466.999974,233.47377 466.776219,233.250016 466.499975,233.250016 L459.499993,233.250016 C459.223747,233.250016 458.999993,233.47377 458.999993,233.750016 L458.999993,234.250016 C458.999993,234.526258 459.223747,234.750016 459.499993,234.750016 L466.499975,234.750016 Z M461.499993,237.750009 C461.776231,237.750009 461.999993,237.526251 461.999993,237.250009 L461.999993,236.750009 C461.999993,236.473763 461.776231,236.250009 461.499993,236.250009 L459.499993,236.250009 C459.223747,236.250009 458.999993,236.473763 458.999993,236.750009 L458.999993,237.250009 C458.999993,237.526251 459.223747,237.750009 459.499993,237.750009 L461.499993,237.750009 Z" id="poll-h"></path>
        </g>
    </g>
</svg>