<?xml version="1.0" encoding="UTF-8"?>
<svg width="90px" height="90px" viewBox="0 0 90 90" version="1.1" xmlns="http://www.w3.org/2000/svg" xmlns:xlink="http://www.w3.org/1999/xlink">
    <!-- Generator: Sketch 64 (93537) - https://sketch.com -->
    <title>poll-h bg</title>
    <desc>Created with Sketch.</desc>
    <g id="wireframes-mobile" stroke="none" stroke-width="1" fill="none" fill-rule="evenodd">
        <g id="style-guidelines-icons" transform="translate(-216.000000, -725.000000)" fill="#F5F7F8" fill-rule="nonzero">
            <path d="M296.357143,815 C301.680804,815 306,810.680804 306,805.357143 L306,734.642857 C306,729.319196 301.680804,725 296.357143,725 L225.642857,725 C220.319196,725 216,729.319196 216,734.642857 L216,805.357143 C216,810.680804 220.319196,815 225.642857,815 L296.357143,815 Z M297,805 L226,805 L226,734 L297,734 L297,805 Z M263.8,756 C265.567969,756 267,754.508301 267,752.666667 L267,749.333333 C267,747.491699 265.567969,746 263.8,746 L238.2,746 C236.432031,746 235,747.491699 235,749.333333 L235,752.666667 C235,754.508301 236.432031,756 238.2,756 L263.8,756 Z M283.8125,775 C285.573563,775 287,773.508301 287,771.666667 L287,768.333333 C287,766.491699 285.573563,765 283.8125,765 L239.1875,765 C237.426437,765 236,766.491699 236,768.333333 L236,771.666667 C236,773.508301 237.426437,775 239.1875,775 L283.8125,775 Z M250.833333,794 C252.582886,794 254,792.508301 254,790.666667 L254,787.333333 C254,785.491699 252.582886,784 250.833333,784 L238.166667,784 C236.417114,784 235,785.491699 235,787.333333 L235,790.666667 C235,792.508301 236.417114,794 238.166667,794 L250.833333,794 Z" id="poll-h-bg"></path>
        </g>
    </g>
</svg>