<?xml version="1.0" encoding="UTF-8"?>
<svg width="13px" height="14px" viewBox="0 0 13 14" version="1.1" xmlns="http://www.w3.org/2000/svg" xmlns:xlink="http://www.w3.org/1999/xlink">
    <!-- Generator: Sketch 63.1 (92452) - https://sketch.com -->
    <title>shield-check</title>
    <desc>Created with Sketch.</desc>
    <g id="wireframes-mobile" stroke="none" stroke-width="1" fill="none" fill-rule="evenodd">
        <g id="style-guidelines-icons" transform="translate(-248.000000, -228.000000)" fill="#407EC9" fill-rule="nonzero">
            <path d="M254.998344,241.899494 C257.319364,240.923221 261,237.55141 261,231.499649 C261,230.969118 260.68312,230.490555 260.201042,230.288208 L255.001042,228.100493 C254.868587,228.044999 254.644753,228 254.501349,228 C254.357971,228 254.134111,228.044999 254.001656,228.100493 L248.801656,230.288208 C248.31688,230.490555 248,230.969118 248,231.499649 C248,236.927917 251.101042,240.679853 253.998958,241.899494 C254.318536,242.033502 254.678739,242.033502 254.998344,241.899494 Z M253.327297,238.44292 L250.51063,235.598891 C250.342708,235.429338 250.342708,235.150399 250.51063,234.980845 L251.122703,234.362827 C251.290625,234.193273 251.56688,234.193273 251.734802,234.362827 L253.633333,236.279801 L257.698531,232.175112 C257.866453,232.005559 258.142708,232.005559 258.31063,232.175112 L258.922703,232.793131 C259.093323,232.965408 259.093323,233.241623 258.922703,233.411176 L253.93937,238.44292 C253.771448,238.612447 253.495219,238.612447 253.327297,238.44292 Z" id="shield-check"></path>
        </g>
    </g>
</svg>