<?xml version="1.0" encoding="UTF-8"?>
<svg width="18px" height="17px" viewBox="0 0 18 17" version="1.1" xmlns="http://www.w3.org/2000/svg" xmlns:xlink="http://www.w3.org/1999/xlink">
    <!-- Generator: Sketch 64 (93537) - https://sketch.com -->
    <title>sync</title>
    <desc>Created with Sketch.</desc>
    <g id="wireframes-mobile" stroke="none" stroke-width="1" fill="none" fill-rule="evenodd">
        <g id="style-guidelines-icons" transform="translate(-79.000000, -174.000000)" fill="#023A4D" fill-rule="nonzero">
            <path d="M80.8519859,181.403226 C81.0514565,181.403226 81.2226028,181.266732 81.2646255,181.076617 C81.9334869,178.04874 84.6923943,175.782258 88,175.782258 C90.7965012,175.782258 93.2010994,177.402818 94.2815704,179.734133 L89.8381844,179.631009 C89.601326,179.62552 89.40625,179.811183 89.40625,180.042199 L89.40625,180.991935 C89.40625,181.219069 89.5951462,181.403226 89.828125,181.403226 L96.578125,181.403226 C96.8111038,181.403226 97,181.219069 97,180.991935 L97,174.41129 C97,174.184157 96.8111038,174 96.578125,174 L95.6039124,174 C95.3669853,174 95.1765099,174.190148 95.1821404,174.421097 L95.2646408,177.799683 C93.7027626,175.509537 91.0324326,174 88,174 C83.7395363,174 80.1929436,176.979244 79.4322777,180.917362 C79.3834915,181.169934 79.5837173,181.403226 79.8473549,181.403226 L80.8519859,181.403226 Z M80.3960876,191 C80.6330147,191 80.8234901,190.809852 80.8178596,190.578903 L80.7353592,187.200317 C82.2972374,189.490463 84.9675674,191 88,191 C92.2604637,191 95.8070564,188.020756 96.5677223,184.082638 C96.6165085,183.830066 96.4162827,183.596774 96.1526451,183.596774 L95.1480141,183.596774 C94.9485435,183.596774 94.7773972,183.733268 94.7353745,183.923383 C94.0665131,186.95126 91.3076057,189.217742 88,189.217742 C85.2034645,189.217742 82.7989006,187.597182 81.7184296,185.265867 L86.1618156,185.368991 C86.398674,185.37448 86.59375,185.188817 86.59375,184.957801 L86.59375,184.008065 C86.59375,183.780931 86.4048538,183.596774 86.171875,183.596774 L79.421875,183.596774 C79.1888962,183.596774 79,183.780931 79,184.008065 L79,190.58871 C79,190.815843 79.1888962,191 79.421875,191 L80.3960876,191 Z" id="sync"></path>
        </g>
    </g>
</svg>