<?xml version="1.0" encoding="UTF-8"?>
<svg width="11px" height="11px" viewBox="0 0 11 11" version="1.1" xmlns="http://www.w3.org/2000/svg" xmlns:xlink="http://www.w3.org/1999/xlink">
    <title>times</title>
    <g id="wireframes-mobile" stroke="none" stroke-width="1" fill="none" fill-rule="evenodd">
        <g id="style-guidelines-icons" transform="translate(-245.000000, -177.000000)" fill="#023A4D" fill-rule="nonzero">
            <path d="M246.79724,187.839398 L250.499832,184.136214 L254.20276,187.839062 C254.416936,188.053198 254.764451,188.053198 254.978963,187.839062 L255.839393,186.978659 C256.053536,186.764489 256.053536,186.416984 255.839393,186.202479 L252.136096,182.5 L255.839058,178.797185 C256.0532,178.583016 256.0532,178.235511 255.839058,178.021006 L254.978627,177.160602 C254.764451,176.946466 254.416936,176.946466 254.202424,177.160602 L250.499832,180.863786 L246.796904,177.160938 C246.582728,176.946802 246.235213,176.946802 246.020701,177.160938 L245.160607,178.021006 C244.946464,178.235142 244.946464,178.58268 245.160607,178.797185 L248.863568,182.5 L245.160607,186.202815 C244.946464,186.416984 244.946464,186.764489 245.160607,186.978994 L246.021037,187.839398 C246.235213,188.053534 246.582728,188.053534 246.79724,187.839398 Z" id="times"></path>
        </g>
    </g>
</svg>