<?xml version="1.0" encoding="UTF-8"?>
<svg width="48px" height="48px" viewBox="0 0 48 48" version="1.1" xmlns="http://www.w3.org/2000/svg" xmlns:xlink="http://www.w3.org/1999/xlink">
    <!-- Generator: Sketch 64 (93537) - https://sketch.com -->
    <title>track_changes-24px</title>
    <desc>Created with Sketch.</desc>
    <g id="wireframes-mobile" stroke="none" stroke-width="1" fill="none" fill-rule="evenodd">
        <g id="1.4-dashboard-empty" transform="translate(-184.000000, -119.000000)">
            <g id="top" transform="translate(-2.000000, 0.000000)">
                <g id="track_changes-24px" transform="translate(181.000000, 114.000000)">
                    <polygon id="Path" points="0 0 58 0 58 58 0 58"></polygon>
                    <path d="M45.968,12.032 L42.584,15.416 C46.04,18.896 48.2,23.696 48.2,29 C48.2,39.608 39.608,48.2 29,48.2 C18.392,48.2 9.8,39.608 9.8,29 C9.8,19.208 17.12,11.144 26.6,9.968 L26.6,14.816 C19.784,15.968 14.6,21.872 14.6,29 C14.6,36.944 21.056,43.4 29,43.4 C36.944,43.4 43.4,36.944 43.4,29 C43.4,25.016 41.792,21.416 39.176,18.824 L35.792,22.208 C37.52,23.96 38.6,26.36 38.6,29 C38.6,34.304 34.304,38.6 29,38.6 C23.696,38.6 19.4,34.304 19.4,29 C19.4,24.536 22.472,20.816 26.6,19.736 L26.6,24.872 C25.16,25.712 24.2,27.224 24.2,29 C24.2,31.64 26.36,33.8 29,33.8 C31.64,33.8 33.8,31.64 33.8,29 C33.8,27.224 32.84,25.688 31.4,24.872 L31.4,5 L29,5 C15.752,5 5,15.752 5,29 C5,42.248 15.752,53 29,53 C42.248,53 53,42.248 53,29 C53,22.376 50.312,16.376 45.968,12.032 Z" id="Path" fill="#00B2A9" fill-rule="nonzero"></path>
                </g>
            </g>
        </g>
    </g>
</svg>