<?xml version="1.0" encoding="UTF-8"?>
<svg width="23px" height="18px" viewBox="0 0 23 18" version="1.1" xmlns="http://www.w3.org/2000/svg" xmlns:xlink="http://www.w3.org/1999/xlink">
    <!-- Generator: Sketch 64 (93537) - https://sketch.com -->
    <title>wifi-slash</title>
    <desc>Created with Sketch.</desc>
    <g id="wireframes-mobile" stroke="none" stroke-width="1" fill="none" fill-rule="evenodd">
        <g id="style-guidelines-icons" transform="translate(-127.000000, -173.000000)" fill="#023A4D" fill-rule="nonzero">
            <path d="M149.514349,190.789177 L149.873719,190.350065 C150.072426,190.107505 150.032207,189.753469 149.784228,189.559387 L128.293883,173.123394 C128.045904,172.929346 127.684042,172.968348 127.485651,173.210942 L127.126281,173.650054 C126.927574,173.892613 126.967793,174.24665 127.215772,174.440731 L148.706117,190.876725 C148.954096,191.070772 149.315607,191.031393 149.514349,190.789177 Z M149.283987,179.62068 L149.880528,179.016325 C150.047649,178.847238 150.037577,178.579342 149.860067,178.420416 C145.310418,174.349304 138.992344,173.189861 133.419227,174.901267 L135.097844,176.185165 C139.794821,175.132943 144.91297,176.273434 148.679866,179.639666 C148.852392,179.793991 149.121533,179.784858 149.283987,179.62068 Z M128.320134,179.639666 C128.777243,179.231144 129.260217,178.867254 129.754001,178.523792 L128.342033,177.443794 C127.929845,177.749285 127.527695,178.073418 127.139933,178.420416 C126.962423,178.579342 126.952351,178.847238 127.119472,179.016325 L127.716013,179.62068 C127.878467,179.785202 128.147608,179.793991 128.320134,179.639666 Z M145.082934,183.821879 C145.146561,183.800764 145.21482,183.792696 145.264444,183.741369 L145.855966,183.130697 C146.021964,182.959481 146.013366,182.686297 145.83512,182.52775 C144.122004,181.002666 142.036218,180.115686 139.885716,179.846725 L145.082934,183.821879 Z M132.332834,183.762449 C133.0408,183.136327 133.825308,182.643073 134.652211,182.269707 L133.160473,181.128872 C132.457911,181.516658 131.784794,181.975786 131.16488,182.52775 C130.986634,182.686675 130.978036,182.959481 131.144034,183.130697 L131.735556,183.741369 C131.895869,183.906955 132.159992,183.9154 132.332834,183.762449 Z M138.5,189.875109 C139.974506,189.875109 141.175519,188.785258 141.341552,187.386381 L137.487657,184.438868 C136.401263,184.840352 135.625038,185.859169 135.625038,187.062591 C135.625038,188.615793 136.912313,189.875109 138.5,189.875109 Z M138.5,188.187598 C137.866083,188.187598 137.350015,187.682739 137.350015,187.062591 C137.350015,186.442443 137.866083,185.937584 138.5,185.937584 C139.133917,185.937584 139.649985,186.442443 139.649985,187.062591 C139.649985,187.682739 139.133917,188.187598 138.5,188.187598 Z" id="wifi-slash"></path>
        </g>
    </g>
</svg>